<?xml version="1.0" encoding="UTF-8"?>
<!DOCTYPE svg PUBLIC "-//W3C//DTD SVG 1.1//EN" "http://www.w3.org/Graphics/SVG/1.1/DTD/svg11.dtd">
<svg xmlns="http://www.w3.org/2000/svg" version="1.1" width="665px" height="258px" style="shape-rendering:geometricPrecision; text-rendering:geometricPrecision; image-rendering:optimizeQuality; fill-rule:evenodd; clip-rule:evenodd" xmlns:xlink="http://www.w3.org/1999/xlink">
<g><path style="opacity:0.071" fill="#cdd5dc" d="M 540.5,87.5 C 538.486,87.3915 536.82,88.0582 535.5,89.5C 535.414,88.5041 535.748,87.6708 536.5,87C 538.066,86.235 539.399,86.4017 540.5,87.5 Z"/></g>
<g><path style="opacity:0.824" fill="#929aa1" d="M 526.5,87.5 C 525.167,87.8333 523.833,88.1667 522.5,88.5C 523.538,86.4805 524.872,86.1472 526.5,87.5 Z"/></g>
<g><path style="opacity:0.718" fill="#999eaa" d="M 560.5,88.5 C 556.434,88.307 552.434,88.6403 548.5,89.5C 548.611,88.8826 548.944,88.3826 549.5,88C 553.358,87.1901 557.024,87.3567 560.5,88.5 Z"/></g>
<g><path style="opacity:0.008" fill="#fefffe" d="M 547.5,89.5 C 546.833,88.1667 546.833,88.1667 547.5,89.5 Z"/></g>
<g><path style="opacity:0.267" fill="#b0b5bf" d="M 580.5,88.5 C 581.906,88.9731 582.573,89.9731 582.5,91.5C 581.094,91.0269 580.427,90.0269 580.5,88.5 Z"/></g>
<g><path style="opacity:0.886" fill="#2c3c52" d="M 506.5,88.5 C 507.962,89.4709 509.295,89.1376 510.5,87.5C 512.931,86.6846 515.264,87.0179 517.5,88.5C 518.383,93.1031 518.717,97.7697 518.5,102.5C 518.423,103.75 517.756,104.583 516.5,105C 512.928,106.405 509.261,106.738 505.5,106C 504.058,105.623 503.058,104.79 502.5,103.5C 502.817,99.2984 502.483,95.2984 501.5,91.5C 500.811,90.2264 499.977,90.2264 499,91.5C 498.501,96.8229 498.334,102.156 498.5,107.5C 497.599,109.727 495.933,110.727 493.5,110.5C 491.517,110.157 490.183,110.824 489.5,112.5C 489.5,113.5 489.5,114.5 489.5,115.5C 488.599,116.29 487.932,117.29 487.5,118.5C 484.978,118.872 482.978,118.039 481.5,116C 481.387,114.253 481.721,112.42 482.5,110.5C 483.973,109.929 485.64,109.929 487.5,110.5C 487.5,109.5 487.5,108.5 487.5,107.5C 491.806,106.934 492.139,106.268 488.5,105.5C 485.675,105.919 483.509,104.919 482,102.5C 480.742,97.6486 481.576,93.3153 484.5,89.5C 490.168,87.87 496.001,86.87 502,86.5C 503.876,86.5247 505.376,87.1914 506.5,88.5 Z M 511.5,91.5 C 512.08,95.649 511.414,99.3157 509.5,102.5C 508.92,98.351 509.586,94.6843 511.5,91.5 Z M 489.5,101.5 C 489.751,98.7104 489.751,95.7104 489.5,92.5C 490.363,91.537 491.03,91.537 491.5,92.5C 490.927,94.1603 490.927,95.9937 491.5,98C 491.392,99.6811 490.725,100.848 489.5,101.5 Z"/></g>
<g><path style="opacity:0.602" fill="#92a3b1" d="M 510.5,87.5 C 509.295,89.1376 507.962,89.4709 506.5,88.5C 507.708,87.7659 509.041,87.4326 510.5,87.5 Z"/></g>
<g><path style="opacity:0.063" fill="#c7d6e5" d="M 489.5,101.5 C 490.725,100.848 491.392,99.6811 491.5,98C 490.927,95.9937 490.927,94.1603 491.5,92.5C 491.03,91.537 490.363,91.537 489.5,92.5C 489.821,90.9519 490.821,90.2852 492.5,90.5C 492.666,94.5138 492.499,98.5138 492,102.5C 490.841,103.566 490.008,103.233 489.5,101.5 Z"/></g>
<g><path style="opacity:0.62" fill="#8694a3" d="M 517.5,88.5 C 518.117,88.6107 518.617,88.944 519,89.5C 519.814,94.0204 519.647,98.3537 518.5,102.5C 518.717,97.7697 518.383,93.1031 517.5,88.5 Z"/></g>
<g><path style="opacity:0.606" fill="#84919c" d="M 501.5,91.5 C 500.833,91.5 500.5,91.8333 500.5,92.5C 499.179,96.2326 499.179,100.066 500.5,104C 499.915,105.302 499.249,106.469 498.5,107.5C 498.334,102.156 498.501,96.8229 499,91.5C 499.977,90.2264 500.811,90.2264 501.5,91.5 Z"/></g>
<g><path style="opacity:1" fill="#132b48" d="M 542.5,111.5 C 542.5,111.833 542.5,112.167 542.5,112.5C 540.977,114.51 539.144,114.844 537,113.5C 536.5,106.174 536.334,98.8409 536.5,91.5C 538.144,91.2865 539.644,91.6198 541,92.5C 541.172,99.0133 541.672,105.347 542.5,111.5 Z"/></g>
<g><path style="opacity:0.098" fill="#bdcddf" d="M 511.5,91.5 C 512.483,95.2984 512.817,99.2984 512.5,103.5C 511.209,103.737 510.209,103.404 509.5,102.5C 511.414,99.3157 512.08,95.649 511.5,91.5 Z"/></g>
<g><path style="opacity:0.635" fill="#818a95" d="M 501.5,91.5 C 502.483,95.2984 502.817,99.2984 502.5,103.5C 501.77,99.9394 501.103,96.2728 500.5,92.5C 501.167,92.5 501.5,92.1667 501.5,91.5 Z"/></g>
<g><path style="opacity:1" fill="#2b3b51" d="M 580.5,88.5 C 580.427,90.0269 581.094,91.0269 582.5,91.5C 583.775,94.3962 583.775,97.3962 582.5,100.5C 581.89,101.391 581.557,102.391 581.5,103.5C 576.888,106.808 571.888,107.308 566.5,105C 565.748,104.329 565.414,103.496 565.5,102.5C 565.5,98.5 565.5,94.5 565.5,90.5C 564.209,90.2627 563.209,90.596 562.5,91.5C 562.414,92.4959 562.748,93.3292 563.5,94C 562.697,98.4145 562.197,102.914 562,107.5C 560.491,109.919 558.325,110.919 555.5,110.5C 554.5,110.5 553.5,110.5 552.5,110.5C 552.5,112.167 552.5,113.833 552.5,115.5C 552.5,116.5 552.5,117.5 552.5,118.5C 550.473,118.662 548.473,118.495 546.5,118C 545.201,114.865 545.201,111.699 546.5,108.5C 548.045,107.548 549.712,107.215 551.5,107.5C 554.46,106.968 554.793,106.301 552.5,105.5C 551.833,105.5 551.5,105.833 551.5,106.5C 545.631,105.14 543.465,101.14 545,94.5C 545.366,92.5483 546.199,90.8816 547.5,89.5C 547.833,89.5 548.167,89.5 548.5,89.5C 552.434,88.6403 556.434,88.307 560.5,88.5C 563.803,85.8599 567.137,85.8599 570.5,88.5C 573.967,87.2117 577.3,87.2117 580.5,88.5 Z M 572.5,91.5 C 573.857,92.5903 574.857,93.9236 575.5,95.5C 575.579,98.2706 575.079,100.937 574,103.5C 573.667,103.167 573.333,102.833 573,102.5C 572.501,98.8484 572.335,95.1817 572.5,91.5 Z M 555.5,93.5 C 555.065,95.2967 555.065,97.2967 555.5,99.5C 554.508,99.3284 553.842,99.6618 553.5,100.5C 552.532,98.3926 552.198,96.0593 552.5,93.5C 553.222,93.0825 553.722,92.4158 554,91.5C 554.278,92.4158 554.778,93.0825 555.5,93.5 Z"/></g>
<g><path style="opacity:0.031" fill="#dceff2" d="M 553.5,100.5 C 553.842,99.6618 554.508,99.3284 555.5,99.5C 555.737,100.791 555.404,101.791 554.5,102.5C 554.672,101.508 554.338,100.842 553.5,100.5 Z"/></g>
<g><path style="opacity:0.315" fill="#a4b7c2" d="M 562.5,91.5 C 563.209,90.596 564.209,90.2627 565.5,90.5C 565.5,94.5 565.5,98.5 565.5,102.5C 565.125,98.5575 564.125,94.8909 562.5,91.5 Z"/></g>
<g><path style="opacity:0.216" fill="#b9c9d9" d="M 572.5,91.5 C 573.209,90.596 574.209,90.2627 575.5,90.5C 575.5,92.1667 575.5,93.8333 575.5,95.5C 574.857,93.9236 573.857,92.5903 572.5,91.5 Z"/></g>
<g><path style="opacity:0.029" fill="#cfe8f0" d="M 555.5,93.5 C 554.778,93.0825 554.278,92.4158 554,91.5C 553.722,92.4158 553.222,93.0825 552.5,93.5C 552.5,92.5 552.5,91.5 552.5,90.5C 553.5,90.5 554.5,90.5 555.5,90.5C 555.5,91.5 555.5,92.5 555.5,93.5 Z"/></g>
<g><path style="opacity:0.047" fill="#d9dbdd" d="M 582.5,100.5 C 583.715,101.779 583.382,102.779 581.5,103.5C 581.557,102.391 581.89,101.391 582.5,100.5 Z"/></g>
<g><path style="opacity:1" fill="#168181" d="M 209.5,135.5 C 211.028,144.908 210.695,154.241 208.5,163.5C 207.895,165.026 206.729,166.026 205,166.5C 203.601,165.773 202.101,165.273 200.5,165C 192.893,160.391 185.559,155.391 178.5,150C 170.651,145.829 162.651,145.495 154.5,149C 147.167,153 139.833,157 132.5,161C 127.645,163.889 124.478,162.723 123,157.5C 117.832,140.306 122.665,126.806 137.5,117C 145.104,113.618 151.938,109.118 158,103.5C 160.667,98.8333 163.333,94.1667 166,89.5C 168.833,95.1697 172.166,100.503 176,105.5C 183.744,111.291 191.911,116.458 200.5,121C 204.983,124.968 207.983,129.802 209.5,135.5 Z"/></g>
<g><path style="opacity:0.941" fill="#374658" d="M 465.5,88.5 C 465.5,92.1667 465.5,95.8333 465.5,99.5C 467.833,99.5 470.167,99.5 472.5,99.5C 472.5,96.1667 472.5,92.8333 472.5,89.5C 472.414,88.5041 472.748,87.6708 473.5,87C 475.066,86.235 476.399,86.4017 477.5,87.5C 478.11,88.391 478.443,89.391 478.5,90.5C 476.549,90.2267 475.049,90.8934 474,92.5C 473.333,99.8333 473.333,107.167 474,114.5C 474.918,116.376 476.418,117.376 478.5,117.5C 477.726,118.147 476.726,118.48 475.5,118.5C 473.97,118.36 472.97,117.693 472.5,116.5C 472.5,111.167 472.5,105.833 472.5,100.5C 470.167,100.5 467.833,100.5 465.5,100.5C 465.5,105.833 465.5,111.167 465.5,116.5C 465.03,117.693 464.03,118.36 462.5,118.5C 461.5,118.167 460.5,117.833 459.5,117.5C 458.359,107.881 458.193,98.2143 459,88.5C 461.201,85.9629 463.368,85.9629 465.5,88.5 Z"/></g>
<g><path style="opacity:0.631" fill="#96a1ad" d="M 465.5,88.5 C 466.479,91.6248 466.813,94.9581 466.5,98.5C 468.167,98.5 469.833,98.5 471.5,98.5C 471.19,95.2869 471.523,92.2869 472.5,89.5C 472.5,92.8333 472.5,96.1667 472.5,99.5C 470.167,99.5 467.833,99.5 465.5,99.5C 465.5,95.8333 465.5,92.1667 465.5,88.5 Z"/></g>
<g><path style="opacity:1" fill="#122c4a" d="M 460.5,90.5 C 462.017,90.5106 463.184,91.1772 464,92.5C 464.5,100.159 464.666,107.826 464.5,115.5C 463.178,115.67 462.011,115.337 461,114.5C 460.5,106.507 460.334,98.5069 460.5,90.5 Z"/></g>
<g><path style="opacity:0.59" fill="#7b8596" d="M 477.5,87.5 C 478.828,92.1194 479.494,97.1194 479.5,102.5C 479.499,107.678 479.166,112.678 478.5,117.5C 478.5,108.5 478.5,99.5 478.5,90.5C 478.443,89.391 478.11,88.391 477.5,87.5 Z"/></g>
<g><path style="opacity:0.071" fill="#cce5f4" d="M 488.5,105.5 C 492.139,106.268 491.806,106.934 487.5,107.5C 487.833,106.833 488.167,106.167 488.5,105.5 Z"/></g>
<g><path style="opacity:0.22" fill="#cedff3" d="M 552.5,105.5 C 554.793,106.301 554.46,106.968 551.5,107.5C 551.5,107.167 551.5,106.833 551.5,106.5C 552.167,106.5 552.5,106.167 552.5,105.5 Z"/></g>
<g><path style="opacity:1" fill="#4f5c67" d="M 487.5,107.5 C 487.5,108.5 487.5,109.5 487.5,110.5C 485.64,109.929 483.973,109.929 482.5,110.5C 483.27,107.623 484.937,106.623 487.5,107.5 Z"/></g>
<g><path style="opacity:0.094" fill="#bbc8d7" d="M 472.5,116.5 C 471.513,111.695 471.179,106.695 471.5,101.5C 469.833,101.5 468.167,101.5 466.5,101.5C 466.821,106.695 466.487,111.695 465.5,116.5C 465.5,111.167 465.5,105.833 465.5,100.5C 467.833,100.5 470.167,100.5 472.5,100.5C 472.5,105.833 472.5,111.167 472.5,116.5 Z"/></g>
<g><path style="opacity:0.149" fill="#c7d9e9" d="M 493.5,110.5 C 492.329,111.345 490.995,112.011 489.5,112.5C 490.183,110.824 491.517,110.157 493.5,110.5 Z"/></g>
<g><path style="opacity:0.255" fill="#c3d0dd" d="M 555.5,110.5 C 554.233,112.039 553.233,113.706 552.5,115.5C 552.5,113.833 552.5,112.167 552.5,110.5C 553.5,110.5 554.5,110.5 555.5,110.5 Z"/></g>
<g><path style="opacity:1" fill="#172a47" d="M 478.5,90.5 C 478.5,99.5 478.5,108.5 478.5,117.5C 476.418,117.376 474.918,116.376 474,114.5C 473.333,107.167 473.333,99.8333 474,92.5C 475.049,90.8934 476.549,90.2267 478.5,90.5 Z"/></g>
<g><path style="opacity:0.508" fill="#72aaac" d="M 275.5,115.5 C 261.5,115.5 247.5,115.5 233.5,115.5C 233.802,118.059 233.468,120.393 232.5,122.5C 232.5,119.833 232.5,117.167 232.5,114.5C 247.01,114.171 261.343,114.504 275.5,115.5 Z"/></g>
<g><path style="opacity:0.541" fill="#88bdbc" d="M 449.5,121.5 C 450.341,119.621 450.675,117.621 450.5,115.5C 436.5,115.5 422.5,115.5 408.5,115.5C 407.725,120.797 407.392,126.13 407.5,131.5C 406.289,125.977 406.289,120.31 407.5,114.5C 421.745,114.824 435.912,114.49 450,113.5C 451.046,114.772 451.546,116.272 451.5,118C 451.392,119.681 450.725,120.848 449.5,121.5 Z"/></g>
<g><path style="opacity:1" fill="#2f3f50" d="M 526.5,87.5 C 527.492,87.3284 528.158,87.6618 528.5,88.5C 528.187,92.0419 528.521,95.3752 529.5,98.5C 531.265,99.4614 533.265,99.7947 535.5,99.5C 535.5,98.5 535.5,97.5 535.5,96.5C 534.918,94.002 534.918,91.6687 535.5,89.5C 536.82,88.0582 538.486,87.3915 540.5,87.5C 542.467,95.0968 543.134,103.097 542.5,111.5C 541.672,105.347 541.172,99.0133 541,92.5C 539.644,91.6198 538.144,91.2865 536.5,91.5C 536.334,98.8409 536.5,106.174 537,113.5C 539.144,114.844 540.977,114.51 542.5,112.5C 543.321,118.158 541.154,119.825 536,117.5C 535.501,112.511 535.334,107.511 535.5,102.5C 533.807,100.234 531.64,99.9003 529,101.5C 528.501,106.823 528.334,112.156 528.5,117.5C 526.44,118.811 524.274,118.811 522,117.5C 521.175,107.658 521.342,97.9911 522.5,88.5C 523.833,88.1667 525.167,87.8333 526.5,87.5 Z"/></g>
<g><path style="opacity:1" fill="#142c48" d="M 525.5,88.5 C 526.117,88.6107 526.617,88.944 527,89.5C 527.667,97.8333 527.667,106.167 527,114.5C 525.286,115.925 523.953,115.592 523,113.5C 522.586,108.766 523.086,104.099 524.5,99.5C 524.331,96.9767 523.998,94.4767 523.5,92C 523.862,90.5657 524.528,89.3991 525.5,88.5 Z"/></g>
<g><path style="opacity:0.658" fill="#7c8893" d="M 535.5,102.5 C 533.609,101.464 531.776,101.464 530,102.5C 529.826,107.684 529.326,112.684 528.5,117.5C 528.334,112.156 528.501,106.823 529,101.5C 531.64,99.9003 533.807,100.234 535.5,102.5 Z"/></g>
<g><path style="opacity:0.663" fill="#92999f" d="M 535.5,96.5 C 535.5,97.5 535.5,98.5 535.5,99.5C 533.265,99.7947 531.265,99.4614 529.5,98.5C 531.886,98.7413 533.886,98.0746 535.5,96.5 Z"/></g>
<g><path style="opacity:0.667" fill="#7c8b96" d="M 528.5,88.5 C 529.934,91.7597 530.268,95.093 529.5,98.5C 528.521,95.3752 528.187,92.0419 528.5,88.5 Z"/></g>
<g><path style="opacity:0.027" fill="#b8cdd2" d="M 489.5,115.5 C 489.938,115.435 490.272,115.601 490.5,116C 489.922,117.417 488.922,118.25 487.5,118.5C 487.932,117.29 488.599,116.29 489.5,115.5 Z"/></g>
<g><path style="opacity:1" fill="#68a7a6" d="M 275.5,115.5 C 276.622,117.288 276.789,119.288 276,121.5C 272.812,125.901 269.645,130.234 266.5,134.5C 268.386,131.545 269.386,128.211 269.5,124.5C 270.5,124.5 271.5,124.5 272.5,124.5C 272.338,122.473 272.505,120.473 273,118.5C 273.308,119.308 273.808,119.975 274.5,120.5C 275.452,118.955 275.785,117.288 275.5,115.5 Z"/></g>
<g><path style="opacity:0.439" fill="#adddd7" d="M 431.5,131.5 C 431.25,133.674 430.25,135.341 428.5,136.5C 428.75,134.326 429.75,132.659 431.5,131.5 Z"/></g>
<g><path style="opacity:1" fill="#589c9a" d="M 448.5,123.5 C 444.885,129.777 440.885,135.777 436.5,141.5C 436.67,140.178 436.337,139.011 435.5,138C 436.766,137.691 437.933,137.191 439,136.5C 439.769,133.901 439.602,131.401 438.5,129C 440.044,129.487 441.71,129.987 443.5,130.5C 443.5,128.5 443.5,126.5 443.5,124.5C 445.292,124.634 446.958,124.301 448.5,123.5 Z"/></g>
<g><path style="opacity:0.671" fill="#96cdcb" d="M 531.5,133.5 C 532.979,132.852 534.479,132.519 536,132.5C 536.717,133.044 537.217,133.711 537.5,134.5C 535.435,134.483 533.435,134.15 531.5,133.5 Z"/></g>
<g><path style="opacity:0.439" fill="#a7dbd9" d="M 518.5,134.5 C 514.158,134.739 509.824,135.073 505.5,135.5C 508.521,134.32 511.687,133.32 515,132.5C 516.302,133.085 517.469,133.751 518.5,134.5 Z"/></g>
<g><path style="opacity:0.804" fill="#94c3c8" d="M 529.5,133.5 C 527.898,135.074 525.898,135.741 523.5,135.5C 525.214,134.262 527.214,133.595 529.5,133.5 Z"/></g>
<g><path style="opacity:0.439" fill="#93c6c5" d="M 558.5,133.5 C 554.402,134.291 550.402,135.291 546.5,136.5C 550.191,133.782 554.191,132.782 558.5,133.5 Z"/></g>
<g><path style="opacity:0.125" fill="#b3e0df" d="M 293.5,134.5 C 291.192,136.471 288.858,138.471 286.5,140.5C 287.578,137.092 289.911,135.092 293.5,134.5 Z"/></g>
<g><path style="opacity:0.071" fill="#a4dbda" d="M 487.5,135.5 C 489.833,135.833 491.167,137.167 491.5,139.5C 489.833,138.5 488.5,137.167 487.5,135.5 Z"/></g>
<g><path style="opacity:1" fill="#247f7f" d="M 275.5,115.5 C 275.785,117.288 275.452,118.955 274.5,120.5C 273.808,119.975 273.308,119.308 273,118.5C 272.505,120.473 272.338,122.473 272.5,124.5C 271.5,124.5 270.5,124.5 269.5,124.5C 269.386,128.211 268.386,131.545 266.5,134.5C 264.178,135.802 262.845,137.802 262.5,140.5C 261.094,140.973 260.427,141.973 260.5,143.5C 259.094,143.973 258.427,144.973 258.5,146.5C 256.178,147.802 254.845,149.802 254.5,152.5C 251.314,158.218 247.648,163.552 243.5,168.5C 242.957,168.56 242.624,168.893 242.5,169.5C 250.145,170.665 257.812,170.831 265.5,170C 266.056,169.617 266.389,169.117 266.5,168.5C 269.893,166.927 271.226,164.26 270.5,160.5C 270.5,159.5 270.5,158.5 270.5,157.5C 272.5,157.5 274.5,157.5 276.5,157.5C 276.084,162.493 275.751,167.493 275.5,172.5C 261.076,174.458 246.41,175.124 231.5,174.5C 231.5,172.833 231.5,171.167 231.5,169.5C 231.845,166.802 233.178,164.802 235.5,163.5C 237.95,161.371 239.617,158.704 240.5,155.5C 240.427,153.973 241.094,152.973 242.5,152.5C 244.9,150.704 246.567,148.37 247.5,145.5C 252.34,137.148 257.673,129.148 263.5,121.5C 264.043,121.44 264.376,121.107 264.5,120.5C 257.344,119.181 250.344,119.181 243.5,120.5C 240.237,122.88 238.737,126.214 239,130.5C 236.578,132.625 234.244,132.958 232,131.5C 231.195,128.304 231.362,125.304 232.5,122.5C 233.468,120.393 233.802,118.059 233.5,115.5C 247.5,115.5 261.5,115.5 275.5,115.5 Z"/></g>
<g><path style="opacity:0.22" fill="#99d2d4" d="M 243.5,120.5 C 250.344,119.181 257.344,119.181 264.5,120.5C 264.376,121.107 264.043,121.44 263.5,121.5C 257.021,120.509 250.354,120.176 243.5,120.5 Z"/></g>
<g><path style="opacity:0.086" fill="#c6e8e9" d="M 266.5,134.5 C 265.66,136.853 264.326,138.853 262.5,140.5C 262.845,137.802 264.178,135.802 266.5,134.5 Z"/></g>
<g><path style="opacity:1" fill="#318483" d="M 392.5,138.5 C 389.432,136.368 386.099,136.035 382.5,137.5C 383.833,138.833 385.167,140.167 386.5,141.5C 385.754,142.736 385.421,144.07 385.5,145.5C 384.872,143.338 383.539,141.672 381.5,140.5C 379.5,139.167 377.5,139.167 375.5,140.5C 373.668,141.248 372.001,142.248 370.5,143.5C 370.167,143.5 369.833,143.5 369.5,143.5C 367.948,141.867 366.281,141.033 364.5,141C 365.167,140.667 365.833,140.333 366.5,140C 365.333,139.5 364.5,138.667 364,137.5C 362.594,138.668 361.428,138.335 360.5,136.5C 359.932,139.412 359.932,142.412 360.5,145.5C 359.468,143.622 358.134,141.955 356.5,140.5C 354.5,139.167 352.5,139.167 350.5,140.5C 348.668,141.248 347.001,142.248 345.5,143.5C 345.294,141.451 344.461,141.117 343,142.5C 340.848,140.676 338.348,140.343 335.5,141.5C 334.365,139.787 332.698,139.12 330.5,139.5C 330.5,138.167 330.5,136.833 330.5,135.5C 334.665,133.771 338.999,133.271 343.5,134C 343.998,135.158 344.831,135.991 346,136.5C 354.123,131.863 361.623,132.53 368.5,138.5C 375.329,133.169 382.663,132.002 390.5,135C 391.823,135.816 392.489,136.983 392.5,138.5 Z"/></g>
<g><path style="opacity:1" fill="#68abaa" d="M 546.5,136.5 C 546.5,137.5 546.5,138.5 546.5,139.5C 550.042,139.187 553.375,139.521 556.5,140.5C 552.869,140.16 549.536,140.994 546.5,143C 545.177,143.816 544.511,144.983 544.5,146.5C 544.5,146.833 544.5,147.167 544.5,147.5C 543.067,145.064 543.4,142.731 545.5,140.5C 544.726,139.289 543.893,139.289 543,140.5C 541.961,139.756 541.461,138.756 541.5,137.5C 542.117,137.611 542.617,137.944 543,138.5C 543.816,137.177 544.983,136.511 546.5,136.5 Z"/></g>
<g><path style="opacity:0.086" fill="#c0eae9" d="M 563.5,134.5 C 567.723,135.931 569.723,138.931 569.5,143.5C 568.27,140.055 566.27,137.055 563.5,134.5 Z"/></g>
<g><path style="opacity:0.31" fill="#9de0db" d="M 356.5,140.5 C 354.19,140.758 352.19,140.758 350.5,140.5C 352.5,139.167 354.5,139.167 356.5,140.5 Z"/></g>
<g><path style="opacity:0.102" fill="#a3e3e2" d="M 381.5,140.5 C 379.19,140.758 377.19,140.758 375.5,140.5C 377.5,139.167 379.5,139.167 381.5,140.5 Z"/></g>
<g><path style="opacity:1" fill="#157c7b" d="M 392.5,138.5 C 393.674,139.514 394.34,140.847 394.5,142.5C 394.334,151.506 394.5,160.506 395,169.5C 396.356,170.38 397.856,170.714 399.5,170.5C 399.5,171.833 399.5,173.167 399.5,174.5C 393.5,174.5 387.5,174.5 381.5,174.5C 381.5,173.167 381.5,171.833 381.5,170.5C 383.451,170.773 384.951,170.107 386,168.5C 386.822,160.655 386.656,152.989 385.5,145.5C 385.421,144.07 385.754,142.736 386.5,141.5C 385.167,140.167 383.833,138.833 382.5,137.5C 386.099,136.035 389.432,136.368 392.5,138.5 Z"/></g>
<g><path style="opacity:1" fill="#227e7d" d="M 449.5,121.5 C 449.672,122.492 449.338,123.158 448.5,123.5C 446.958,124.301 445.292,124.634 443.5,124.5C 443.5,126.5 443.5,128.5 443.5,130.5C 441.71,129.987 440.044,129.487 438.5,129C 439.602,131.401 439.769,133.901 439,136.5C 437.933,137.191 436.766,137.691 435.5,138C 436.337,139.011 436.67,140.178 436.5,141.5C 434.674,143.147 433.34,145.147 432.5,147.5C 431.649,149.882 430.316,151.882 428.5,153.5C 427.094,153.973 426.427,154.973 426.5,156.5C 425.094,156.973 424.427,157.973 424.5,159.5C 423.094,159.973 422.427,160.973 422.5,162.5C 421.094,162.973 420.427,163.973 420.5,165.5C 420.5,166.167 420.167,166.5 419.5,166.5C 417.896,167.287 417.229,168.62 417.5,170.5C 424.841,170.666 432.174,170.5 439.5,170C 444.257,167.261 446.257,163.094 445.5,157.5C 447.5,157.5 449.5,157.5 451.5,157.5C 450.873,162.141 450.54,166.807 450.5,171.5C 449.596,172.209 449.263,173.209 449.5,174.5C 435.167,174.5 420.833,174.5 406.5,174.5C 406.448,172.097 406.781,169.764 407.5,167.5C 413.76,156.639 420.76,146.306 428.5,136.5C 430.25,135.341 431.25,133.674 431.5,131.5C 433.255,128.32 435.255,125.32 437.5,122.5C 438.478,122.189 439.145,121.522 439.5,120.5C 432.344,119.181 425.344,119.181 418.5,120.5C 417.71,121.401 416.71,122.068 415.5,122.5C 413.72,123.99 413.054,125.99 413.5,128.5C 413.5,129.833 413.5,131.167 413.5,132.5C 411.265,132.795 409.265,132.461 407.5,131.5C 407.392,126.13 407.725,120.797 408.5,115.5C 422.5,115.5 436.5,115.5 450.5,115.5C 450.675,117.621 450.341,119.621 449.5,121.5 Z"/></g>
<g><path style="opacity:0.435" fill="#a6d1d3" d="M 415.5,122.5 C 415.125,124.698 414.458,126.698 413.5,128.5C 413.054,125.99 413.72,123.99 415.5,122.5 Z"/></g>
<g><path style="opacity:0.323" fill="#9cd6d5" d="M 418.5,120.5 C 425.344,119.181 432.344,119.181 439.5,120.5C 439.145,121.522 438.478,122.189 437.5,122.5C 437.082,121.778 436.416,121.278 435.5,121C 429.843,120.501 424.176,120.334 418.5,120.5 Z"/></g>
<g><path style="opacity:0.043" fill="#bbebe9" d="M 209.5,135.5 C 210.268,136.263 210.768,137.263 211,138.5C 211.667,144.833 211.667,151.167 211,157.5C 210.76,159.852 209.927,161.852 208.5,163.5C 210.695,154.241 211.028,144.908 209.5,135.5 Z"/></g>
<g><path style="opacity:0.02" fill="#c8f0f0" d="M 262.5,140.5 C 262.573,142.027 261.906,143.027 260.5,143.5C 260.427,141.973 261.094,140.973 262.5,140.5 Z"/></g>
<g><path style="opacity:0.294" fill="#b1d8d8" d="M 286.5,140.5 C 285.5,146.833 288.167,149.5 294.5,148.5C 289.729,151.058 286.396,149.558 284.5,144C 285.085,142.698 285.751,141.531 286.5,140.5 Z"/></g>
<g><path style="opacity:0.039" fill="#cdf3f4" d="M 260.5,143.5 C 260.573,145.027 259.906,146.027 258.5,146.5C 258.427,144.973 259.094,143.973 260.5,143.5 Z"/></g>
<g><path style="opacity:1" fill="#71bab5" d="M 307.5,141.5 C 309.448,143.065 310.615,145.065 311,147.5C 310.586,147.043 310.086,146.709 309.5,146.5C 307.585,148.472 305.251,149.472 302.5,149.5C 304.187,148.082 306.02,146.749 308,145.5C 308.579,144.072 308.412,142.738 307.5,141.5 Z"/></g>
<g><path style="opacity:0.016" fill="#b9efef" d="M 436.5,141.5 C 436.155,144.198 434.822,146.198 432.5,147.5C 433.34,145.147 434.674,143.147 436.5,141.5 Z"/></g>
<g><path style="opacity:1" fill="#318584" d="M 563.5,134.5 C 566.27,137.055 568.27,140.055 569.5,143.5C 570.493,151.984 570.826,160.651 570.5,169.5C 574.701,169.426 576.035,171.259 574.5,175C 568.167,175.667 561.833,175.667 555.5,175C 554.199,173.384 554.199,171.884 555.5,170.5C 557.698,170.88 559.365,170.213 560.5,168.5C 560.666,160.826 560.5,153.159 560,145.5C 559.303,143.416 558.136,141.749 556.5,140.5C 553.375,139.521 550.042,139.187 546.5,139.5C 546.5,138.5 546.5,137.5 546.5,136.5C 550.402,135.291 554.402,134.291 558.5,133.5C 560.259,132.739 561.926,133.072 563.5,134.5 Z"/></g>
<g><path style="opacity:0.02" fill="#c4edec" d="M 258.5,146.5 C 257.66,148.853 256.326,150.853 254.5,152.5C 254.845,149.802 256.178,147.802 258.5,146.5 Z"/></g>
<g><path style="opacity:1" fill="#2e8382" d="M 317.5,141.5 C 318.221,150.808 318.721,160.141 319,169.5C 320.579,170.8 321.745,170.466 322.5,168.5C 322.005,163.973 323.672,162.639 327.5,164.5C 327.425,167.206 327.092,169.873 326.5,172.5C 325.657,174.173 324.324,175.34 322.5,176C 319.633,176.801 316.966,176.634 314.5,175.5C 313.833,174.167 312.833,173.167 311.5,172.5C 311.539,171.244 311.039,170.244 310,169.5C 307.678,172.395 304.845,174.395 301.5,175.5C 294.988,177.588 289.155,176.255 284,171.5C 281.696,165.384 282.863,160.051 287.5,155.5C 292.235,152.703 297.235,150.703 302.5,149.5C 305.251,149.472 307.585,148.472 309.5,146.5C 310.086,146.709 310.586,147.043 311,147.5C 310.615,145.065 309.448,143.065 307.5,141.5C 305.491,139.935 303.157,138.935 300.5,138.5C 298.856,138.286 297.356,138.62 296,139.5C 295.982,141.797 296.149,144.131 296.5,146.5C 296.5,147.833 295.833,148.5 294.5,148.5C 288.167,149.5 285.5,146.833 286.5,140.5C 288.858,138.471 291.192,136.471 293.5,134.5C 300.454,131.652 307.454,132.152 314.5,136C 316.607,137.264 317.607,139.097 317.5,141.5 Z M 307.5,164.5 C 303.695,168.674 299.362,169.674 294.5,167.5C 293.775,162.623 295.442,158.956 299.5,156.5C 302.426,155.539 305.426,154.873 308.5,154.5C 308.384,157.86 308.051,161.193 307.5,164.5 Z"/></g>
<g><path style="opacity:0.016" fill="#c0f4f6" d="M 300.5,138.5 C 299.192,139.232 297.858,140.066 296.5,141C 297.807,142.943 297.807,144.777 296.5,146.5C 296.149,144.131 295.982,141.797 296,139.5C 297.356,138.62 298.856,138.286 300.5,138.5 Z"/></g>
<g><path style="opacity:0.675" fill="#8a96a1" d="M 71.5,150.5 C 70.0813,151.451 68.4147,151.784 66.5,151.5C 67.8775,150.766 69.3775,150.099 71,149.5C 71.3988,149.728 71.5654,150.062 71.5,150.5 Z"/></g>
<g><path style="opacity:0.388" fill="#b0dadf" d="M 247.5,145.5 C 246.567,148.37 244.9,150.704 242.5,152.5C 243.433,149.63 245.1,147.296 247.5,145.5 Z"/></g>
<g><path style="opacity:0.792" fill="#92cac5" d="M 483.5,145.5 C 483.586,146.496 483.252,147.329 482.5,148C 478.141,150.397 473.475,151.897 468.5,152.5C 473.752,150.747 478.752,148.414 483.5,145.5 Z"/></g>
<g><path style="opacity:0.994" fill="#697581" d="M 77.5,150.5 C 80.4951,150.294 83.1617,150.96 85.5,152.5C 82.3019,153.036 79.6353,152.369 77.5,150.5 Z"/></g>
<g><path style="opacity:0.16" fill="#c4f1f2" d="M 369.5,143.5 C 369.833,143.5 370.167,143.5 370.5,143.5C 370.607,151.621 370.607,159.621 370.5,167.5C 372.861,168.858 375.194,170.358 377.5,172C 376.364,173.145 375.364,174.312 374.5,175.5C 374.5,173.833 374.5,172.167 374.5,170.5C 372.856,170.714 371.356,170.38 370,169.5C 369.5,160.84 369.334,152.173 369.5,143.5 Z"/></g>
<g><path style="opacity:0.227" fill="#bcedf0" d="M 307.5,164.5 C 308.051,161.193 308.384,157.86 308.5,154.5C 305.426,154.873 302.426,155.539 299.5,156.5C 302.37,154.206 305.703,152.872 309.5,152.5C 309.917,156.817 309.25,160.817 307.5,164.5 Z"/></g>
<g><path style="opacity:0.035" fill="#c9f3f4" d="M 330.5,135.5 C 330.5,136.833 330.5,138.167 330.5,139.5C 332.698,139.12 334.365,139.787 335.5,141.5C 335.666,150.839 335.5,160.173 335,169.5C 333.644,170.38 332.144,170.714 330.5,170.5C 331.531,169.751 332.698,169.085 334,168.5C 334.832,159.482 334.665,150.482 333.5,141.5C 332.264,140.754 330.93,140.421 329.5,140.5C 329.216,138.585 329.549,136.919 330.5,135.5 Z"/></g>
<g><path style="opacity:0.63" fill="#6faaaa" d="M 345.5,143.5 C 344.612,146.054 344.279,148.721 344.5,151.5C 344.5,156.833 344.5,162.167 344.5,167.5C 343.834,163.681 343.501,159.681 343.5,155.5C 343.509,151.107 344.176,147.107 345.5,143.5 Z"/></g>
<g><path style="opacity:1" fill="#405868" d="M 171.5,152.5 C 174.241,152.707 176.574,153.707 178.5,155.5C 177.504,155.414 176.671,155.748 176,156.5C 174.509,154.996 172.676,154.163 170.5,154C 171.056,153.617 171.389,153.117 171.5,152.5 Z"/></g>
<g><path style="opacity:0.027" fill="#d1f1f1" d="M 428.5,153.5 C 428.573,155.027 427.906,156.027 426.5,156.5C 426.427,154.973 427.094,153.973 428.5,153.5 Z"/></g>
<g><path style="opacity:1" fill="#167a7a" d="M 529.5,133.5 C 530.167,133.5 530.833,133.5 531.5,133.5C 533.435,134.15 535.435,134.483 537.5,134.5C 539.404,134.738 540.738,135.738 541.5,137.5C 541.461,138.756 541.961,139.756 543,140.5C 543.893,139.289 544.726,139.289 545.5,140.5C 543.4,142.731 543.067,145.064 544.5,147.5C 544.334,154.841 544.5,162.174 545,169.5C 546.356,170.38 547.856,170.714 549.5,170.5C 550.686,171.705 550.686,173.039 549.5,174.5C 543.167,174.5 536.833,174.5 530.5,174.5C 530.5,173.167 530.5,171.833 530.5,170.5C 533.238,171.035 535.072,170.035 536,167.5C 536.667,161.167 536.667,154.833 536,148.5C 535.802,146.618 535.302,144.952 534.5,143.5C 533.833,142.833 533.167,142.167 532.5,141.5C 531.688,140.007 530.355,139.34 528.5,139.5C 526.443,139.436 524.777,140.102 523.5,141.5C 523.167,141.5 522.833,141.5 522.5,141.5C 521.167,141.5 519.833,141.5 518.5,141.5C 518.173,150.682 518.507,159.682 519.5,168.5C 520.635,170.213 522.302,170.88 524.5,170.5C 524.5,171.833 524.5,173.167 524.5,174.5C 518.167,174.5 511.833,174.5 505.5,174.5C 505.5,173.167 505.5,171.833 505.5,170.5C 507.144,170.714 508.644,170.38 510,169.5C 510.667,159.833 510.667,150.167 510,140.5C 508.301,139.594 506.467,139.261 504.5,139.5C 502.922,137.625 503.255,136.292 505.5,135.5C 509.824,135.073 514.158,134.739 518.5,134.5C 518.238,135.978 518.571,137.311 519.5,138.5C 520.901,137.479 522.235,136.479 523.5,135.5C 525.898,135.741 527.898,135.074 529.5,133.5 Z"/></g>
<g><path style="opacity:0.638" fill="#94caca" d="M 534.5,143.5 C 535.302,144.952 535.802,146.618 536,148.5C 536.667,154.833 536.667,161.167 536,167.5C 535.072,170.035 533.238,171.035 530.5,170.5C 531.531,169.751 532.698,169.085 534,168.5C 535.243,160.289 535.409,151.955 534.5,143.5 Z"/></g>
<g><path style="opacity:0.11" fill="#adebea" d="M 532.5,141.5 C 529.523,140.322 526.523,140.322 523.5,141.5C 524.777,140.102 526.443,139.436 528.5,139.5C 530.355,139.34 531.688,140.007 532.5,141.5 Z"/></g>
<g><path style="opacity:0.063" fill="#b0efec" d="M 518.5,134.5 C 520.042,135.301 521.708,135.634 523.5,135.5C 522.235,136.479 520.901,137.479 519.5,138.5C 518.571,137.311 518.238,135.978 518.5,134.5 Z"/></g>
<g><path style="opacity:0.004" fill="#dadee2" d="M 91.5,156.5 C 93.0269,156.427 94.0269,157.094 94.5,158.5C 92.9731,158.573 91.9731,157.906 91.5,156.5 Z"/></g>
<g><path style="opacity:0.167" fill="#bae6e5" d="M 270.5,157.5 C 272.607,156.532 274.941,156.198 277.5,156.5C 277.55,162.389 276.884,168.056 275.5,173.5C 275.5,173.167 275.5,172.833 275.5,172.5C 275.751,167.493 276.084,162.493 276.5,157.5C 274.5,157.5 272.5,157.5 270.5,157.5 Z"/></g>
<g><path style="opacity:0.008" fill="#ebfaf9" d="M 317.5,141.5 C 318.268,142.263 318.768,143.263 319,144.5C 319.5,152.493 319.666,160.493 319.5,168.5C 320.5,168.5 321.5,168.5 322.5,168.5C 321.745,170.466 320.579,170.8 319,169.5C 318.721,160.141 318.221,150.808 317.5,141.5 Z"/></g>
<g><path style="opacity:0.494" fill="#a3d6d6" d="M 463.5,155.5 C 462.5,157.167 461.167,158.5 459.5,159.5C 459.833,157.167 461.167,155.833 463.5,155.5 Z"/></g>
<g><path style="opacity:0.4" fill="#b5e0e0" d="M 492.5,142.5 C 494.113,150.362 494.779,158.362 494.5,166.5C 494.833,167.167 495.167,167.833 495.5,168.5C 496.862,166.988 497.196,165.488 496.5,164C 498.712,163.211 500.712,163.378 502.5,164.5C 501.167,164.5 499.833,164.5 498.5,164.5C 498.981,168.349 497.314,170.349 493.5,170.5C 492.582,161.207 492.248,151.873 492.5,142.5 Z"/></g>
<g><path style="opacity:0.267" fill="#b8e0df" d="M 240.5,155.5 C 239.617,158.704 237.95,161.371 235.5,163.5C 236.34,160.324 238.007,157.658 240.5,155.5 Z"/></g>
<g><path style="opacity:1" fill="#2d3e54" d="M 59.5,153.5 C 59.1231,155.258 58.4565,156.925 57.5,158.5C 57.7093,159.086 58.0426,159.586 58.5,160C 56.236,160.236 54.0693,160.736 52,161.5C 51.6667,160.833 51.3333,160.167 51,159.5C 50.5,160.667 49.6667,161.5 48.5,162C 56.2757,162.188 63.9423,163.188 71.5,165C 73.7256,168.028 76.7256,169.861 80.5,170.5C 79.8728,171.417 79.5394,172.417 79.5,173.5C 71.5002,166.507 62.1668,163.507 51.5,164.5C 48.7718,164.829 46.4385,164.163 44.5,162.5C 48.708,158.315 53.708,155.315 59.5,153.5 Z"/></g>
<g><path style="opacity:1" fill="#162e4f" d="M 171.5,152.5 C 171.389,153.117 171.056,153.617 170.5,154C 172.676,154.163 174.509,154.996 176,156.5C 176.671,155.748 177.504,155.414 178.5,155.5C 178.833,155.5 179.167,155.5 179.5,155.5C 179.632,158.797 181.298,160.463 184.5,160.5C 184.674,162.861 185.007,165.194 185.5,167.5C 188.833,167.5 192.167,167.5 195.5,167.5C 198.172,168.501 200.838,169.501 203.5,170.5C 206.028,171.166 208.694,171.832 211.5,172.5C 211.023,173.931 210.357,175.264 209.5,176.5C 206.962,177.992 204.629,179.659 202.5,181.5C 197.156,181.666 191.823,181.499 186.5,181C 184.248,178.113 181.248,176.78 177.5,177C 173.833,174.667 170.833,171.667 168.5,168C 164.057,166.2 159.723,165.033 155.5,164.5C 153.793,164.728 152.126,165.062 150.5,165.5C 149.167,165.5 147.833,165.5 146.5,165.5C 144.143,165.663 141.81,165.497 139.5,165C 140.833,164.667 142.167,164.333 143.5,164C 142.316,162.855 142.316,161.688 143.5,160.5C 151.453,153.2 160.787,150.533 171.5,152.5 Z"/></g>
<g><path style="opacity:0.024" fill="#cbf0f0" d="M 426.5,156.5 C 426.573,158.027 425.906,159.027 424.5,159.5C 424.427,157.973 425.094,156.973 426.5,156.5 Z"/></g>
<g><path style="opacity:0.988" fill="#2d8281" d="M 487.5,135.5 C 488.5,137.167 489.833,138.5 491.5,139.5C 492.404,140.209 492.737,141.209 492.5,142.5C 492.248,151.873 492.582,161.207 493.5,170.5C 497.314,170.349 498.981,168.349 498.5,164.5C 499.833,164.5 501.167,164.5 502.5,164.5C 504.574,171.512 501.574,175.512 493.5,176.5C 491.286,176.389 489.286,175.722 487.5,174.5C 486.684,170.592 485.017,169.926 482.5,172.5C 476.755,176.641 470.421,177.475 463.5,175C 462.058,174.623 461.058,173.79 460.5,172.5C 458.377,168.307 458.044,163.973 459.5,159.5C 461.167,158.5 462.5,157.167 463.5,155.5C 464.659,153.75 466.326,152.75 468.5,152.5C 473.475,151.897 478.141,150.397 482.5,148C 483.252,147.329 483.586,146.496 483.5,145.5C 483.5,144.5 483.5,143.5 483.5,142.5C 482.206,139.264 479.706,137.931 476,138.5C 474.5,138.667 473,138.833 471.5,139C 470.226,139.977 470.226,140.811 471.5,141.5C 471.167,143.5 470.833,145.5 470.5,147.5C 462.78,151.625 459.613,149.292 461,140.5C 464.781,134.943 470.115,132.276 477,132.5C 480.86,132.695 484.36,133.695 487.5,135.5 Z M 481.5,153.5 C 482.725,154.152 483.392,155.319 483.5,157C 483.083,159.498 482.749,161.998 482.5,164.5C 480.305,166.424 477.972,168.091 475.5,169.5C 469.531,168.594 467.864,165.261 470.5,159.5C 471.167,159.5 471.5,159.167 471.5,158.5C 473.434,157.89 475.101,156.89 476.5,155.5C 478.553,155.598 480.22,154.931 481.5,153.5 Z"/></g>
<g><path style="opacity:0.396" fill="#9dd7d6" d="M 481.5,153.5 C 482.209,152.596 483.209,152.263 484.5,152.5C 484.917,156.817 484.25,160.817 482.5,164.5C 482.749,161.998 483.083,159.498 483.5,157C 483.392,155.319 482.725,154.152 481.5,153.5 Z"/></g>
<g><path style="opacity:0.18" fill="#c2e9e7" d="M 476.5,155.5 C 475.101,156.89 473.434,157.89 471.5,158.5C 472.401,156.273 474.067,155.273 476.5,155.5 Z"/></g>
<g><path style="opacity:0.031" fill="#d0efef" d="M 471.5,141.5 C 472.139,142.097 472.472,142.93 472.5,144C 472.613,145.699 471.947,146.866 470.5,147.5C 470.833,145.5 471.167,143.5 471.5,141.5 Z"/></g>
<g><path style="opacity:0.086" fill="#c0f2f4" d="M 483.5,142.5 C 479.578,139.121 475.578,138.788 471.5,141.5C 470.226,140.811 470.226,139.977 471.5,139C 473,138.833 474.5,138.667 476,138.5C 479.706,137.931 482.206,139.264 483.5,142.5 Z"/></g>
<g><path style="opacity:0.007" fill="#e6fbfc" d="M 360.5,159.5 C 360.665,162.85 360.498,166.183 360,169.5C 358.644,170.38 357.144,170.714 355.5,170.5C 356.531,169.751 357.698,169.085 359,168.5C 359.181,165.305 359.681,162.305 360.5,159.5 Z"/></g>
<g><path style="opacity:0.004" fill="#cfd9de" d="M 96.5,160.5 C 98.0269,160.427 99.0269,161.094 99.5,162.5C 97.9731,162.573 96.9731,161.906 96.5,160.5 Z"/></g>
<g><path style="opacity:0.02" fill="#d5fcfc" d="M 344.5,151.5 C 345.327,156.985 345.827,162.652 346,168.5C 347.622,169.099 349.122,169.766 350.5,170.5C 348.801,170.66 347.134,170.494 345.5,170C 344.748,169.329 344.414,168.496 344.5,167.5C 344.5,162.167 344.5,156.833 344.5,151.5 Z"/></g>
<g><path style="opacity:0.152" fill="#b1e9e9" d="M 504.5,139.5 C 506.467,139.261 508.301,139.594 510,140.5C 510.667,150.167 510.667,159.833 510,169.5C 508.644,170.38 507.144,170.714 505.5,170.5C 505.167,170.5 504.833,170.5 504.5,170.5C 505.878,169.766 507.378,169.099 509,168.5C 509.832,159.482 509.665,150.482 508.5,141.5C 506.974,141.006 505.641,140.339 504.5,139.5 Z"/></g>
<g><path style="opacity:0.663" fill="#69aaa8" d="M 522.5,141.5 C 521.5,142.833 520.5,144.167 519.5,145.5C 519.5,153.167 519.5,160.833 519.5,168.5C 518.507,159.682 518.173,150.682 518.5,141.5C 519.833,141.5 521.167,141.5 522.5,141.5 Z"/></g>
<g><path style="opacity:0.024" fill="#cff3f0" d="M 424.5,159.5 C 424.573,161.027 423.906,162.027 422.5,162.5C 422.427,160.973 423.094,159.973 424.5,159.5 Z"/></g>
<g><path style="opacity:0.02" fill="#d0fcfc" d="M 519.5,145.5 C 520.329,152.989 520.829,160.656 521,168.5C 522.622,169.099 524.122,169.766 525.5,170.5C 525.167,170.5 524.833,170.5 524.5,170.5C 522.302,170.88 520.635,170.213 519.5,168.5C 519.5,160.833 519.5,153.167 519.5,145.5 Z"/></g>
<g><path style="opacity:0.429" fill="#9dcdcc" d="M 394.5,142.5 C 395.205,148.369 395.871,154.369 396.5,160.5C 396.354,162.806 396.021,165.139 395.5,167.5C 396.668,169.217 398.335,169.884 400.5,169.5C 400.5,171.5 400.5,173.5 400.5,175.5C 393.8,175.83 387.134,175.497 380.5,174.5C 378.764,170.56 380.097,168.893 384.5,169.5C 385.403,161.542 385.736,153.542 385.5,145.5C 386.656,152.989 386.822,160.655 386,168.5C 384.951,170.107 383.451,170.773 381.5,170.5C 381.5,171.833 381.5,173.167 381.5,174.5C 387.5,174.5 393.5,174.5 399.5,174.5C 399.5,173.167 399.5,171.833 399.5,170.5C 397.856,170.714 396.356,170.38 395,169.5C 394.5,160.506 394.334,151.506 394.5,142.5 Z"/></g>
<g><path style="opacity:0.059" fill="#c8f4f2" d="M 445.5,157.5 C 447.607,156.532 449.941,156.198 452.5,156.5C 452.844,162.098 452.178,167.432 450.5,172.5C 450.5,172.167 450.5,171.833 450.5,171.5C 450.54,166.807 450.873,162.141 451.5,157.5C 449.5,157.5 447.5,157.5 445.5,157.5 Z"/></g>
<g><path style="opacity:0.024" fill="#c0f0f0" d="M 470.5,159.5 C 467.864,165.261 469.531,168.594 475.5,169.5C 473.275,170.751 471.109,170.418 469,168.5C 468.333,165.833 468.333,163.167 469,160.5C 469.383,159.944 469.883,159.611 470.5,159.5 Z"/></g>
<g><path style="opacity:1" fill="#1f7f7c" d="M 369.5,143.5 C 369.334,152.173 369.5,160.84 370,169.5C 371.356,170.38 372.856,170.714 374.5,170.5C 374.5,172.167 374.5,173.833 374.5,175.5C 367.978,175.823 361.645,175.49 355.5,174.5C 355.5,173.167 355.5,171.833 355.5,170.5C 357.144,170.714 358.644,170.38 360,169.5C 360.498,166.183 360.665,162.85 360.5,159.5C 360.5,154.833 360.5,150.167 360.5,145.5C 359.932,142.412 359.932,139.412 360.5,136.5C 361.428,138.335 362.594,138.668 364,137.5C 364.5,138.667 365.333,139.5 366.5,140C 365.833,140.333 365.167,140.667 364.5,141C 366.281,141.033 367.948,141.867 369.5,143.5 Z"/></g>
<g><path style="opacity:0.012" fill="#dff4f2" d="M 422.5,162.5 C 422.573,164.027 421.906,165.027 420.5,165.5C 420.427,163.973 421.094,162.973 422.5,162.5 Z"/></g>
<g><path style="opacity:0.043" fill="#cdf6f4" d="M 459.5,159.5 C 458.044,163.973 458.377,168.307 460.5,172.5C 458.106,170.668 457.106,168.168 457.5,165C 457.667,163.5 457.833,162 458,160.5C 458.383,159.944 458.883,159.611 459.5,159.5 Z"/></g>
<g><path style="opacity:0.945" fill="#536769" d="M 44.5,162.5 C 46.4385,164.163 48.7718,164.829 51.5,164.5C 47.1652,165.452 42.9985,167.118 39,169.5C 39.7719,166.536 41.6052,164.202 44.5,162.5 Z"/></g>
<g><path style="opacity:0.141" fill="#c8ecec" d="M 327.5,164.5 C 328.917,167.34 328.584,170.007 326.5,172.5C 327.092,169.873 327.425,167.206 327.5,164.5 Z"/></g>
<g><path style="opacity:1" fill="#112c4e" d="M 59.5,153.5 C 61.0443,153.703 62.3777,154.37 63.5,155.5C 71.6217,152.779 79.6217,153.112 87.5,156.5C 90.3106,160.964 94.3106,163.964 99.5,165.5C 100.382,166.76 101.382,167.926 102.5,169C 107.649,170.916 112.983,171.916 118.5,172C 118.833,172.333 119.167,172.667 119.5,173C 117.167,173.333 114.833,173.667 112.5,174C 113.91,174.368 114.91,175.201 115.5,176.5C 111.077,180.181 106.077,181.181 100.5,179.5C 101.603,179.002 102.603,178.669 103.5,178.5C 99.6767,177.256 96.1767,177.922 93,180.5C 90.4259,177.81 87.5925,176.81 84.5,177.5C 83.4154,175.413 81.7488,174.08 79.5,173.5C 79.5394,172.417 79.8728,171.417 80.5,170.5C 76.7256,169.861 73.7256,168.028 71.5,165C 63.9423,163.188 56.2757,162.188 48.5,162C 49.6667,161.5 50.5,160.667 51,159.5C 51.3333,160.167 51.6667,160.833 52,161.5C 54.0693,160.736 56.236,160.236 58.5,160C 58.0426,159.586 57.7093,159.086 57.5,158.5C 58.4565,156.925 59.1231,155.258 59.5,153.5 Z"/></g>
<g><path style="opacity:0.929" fill="#394a58" d="M 143.5,160.5 C 142.316,161.688 142.316,162.855 143.5,164C 142.167,164.333 140.833,164.667 139.5,165C 141.81,165.497 144.143,165.663 146.5,165.5C 136.523,168.151 127.189,172.485 118.5,178.5C 119.289,175.566 121.289,173.732 124.5,173C 123.216,172.316 122.049,172.483 121,173.5C 120.51,172.207 120.343,170.873 120.5,169.5C 128.716,167.891 136.383,164.891 143.5,160.5 Z"/></g>
<g><path style="opacity:1" fill="#2a3c52" d="M 179.5,155.5 C 184.872,159.512 190.205,163.512 195.5,167.5C 192.167,167.5 188.833,167.5 185.5,167.5C 185.007,165.194 184.674,162.861 184.5,160.5C 181.298,160.463 179.632,158.797 179.5,155.5 Z"/></g>
<g><path style="opacity:0.2" fill="#afe1de" d="M 270.5,160.5 C 271.226,164.26 269.893,166.927 266.5,168.5C 267.853,165.795 269.186,163.128 270.5,160.5 Z"/></g>
<g><path style="opacity:0.024" fill="#caf9f9" d="M 544.5,146.5 C 545.329,153.655 545.829,160.989 546,168.5C 547.302,169.085 548.469,169.751 549.5,170.5C 547.856,170.714 546.356,170.38 545,169.5C 544.5,162.174 544.334,154.841 544.5,147.5C 544.5,147.167 544.5,146.833 544.5,146.5 Z"/></g>
<g><path style="opacity:0.82" fill="#76808f" d="M 108.5,167.5 C 111.373,167.802 114.039,168.469 116.5,169.5C 114.143,169.663 111.81,169.497 109.5,169C 108.944,168.617 108.611,168.117 108.5,167.5 Z"/></g>
<g><path style="opacity:0.01" fill="#d1ecef" d="M 482.5,164.5 C 481.473,167.858 479.14,169.525 475.5,169.5C 477.972,168.091 480.305,166.424 482.5,164.5 Z"/></g>
<g><path style="opacity:0.345" fill="#94ceca" d="M 243.5,168.5 C 251.038,169.782 258.705,169.782 266.5,168.5C 266.389,169.117 266.056,169.617 265.5,170C 257.812,170.831 250.145,170.665 242.5,169.5C 242.624,168.893 242.957,168.56 243.5,168.5 Z"/></g>
<g><path style="opacity:0.345" fill="#b6e7e7" d="M 307.5,164.5 C 306.641,167.452 304.641,169.285 301.5,170C 298.306,171.081 295.973,170.247 294.5,167.5C 299.362,169.674 303.695,168.674 307.5,164.5 Z"/></g>
<g><path style="opacity:0.362" fill="#a8dbdb" d="M 445.5,157.5 C 446.257,163.094 444.257,167.261 439.5,170C 432.174,170.5 424.841,170.666 417.5,170.5C 417.229,168.62 417.896,167.287 419.5,166.5C 419.5,167.5 419.5,168.5 419.5,169.5C 425.842,169.666 432.175,169.5 438.5,169C 439.931,168.535 441.097,167.701 442,166.5C 443.296,163.429 444.462,160.429 445.5,157.5 Z"/></g>
<g><path style="opacity:0.122" fill="#c7f4f3" d="M 560.5,168.5 C 559.365,170.213 557.698,170.88 555.5,170.5C 556.93,169.463 558.597,168.796 560.5,168.5 Z"/></g>
<g><path style="opacity:1" fill="#147a7a" d="M 345.5,143.5 C 344.176,147.107 343.509,151.107 343.5,155.5C 343.501,159.681 343.834,163.681 344.5,167.5C 344.414,168.496 344.748,169.329 345.5,170C 347.134,170.494 348.801,170.66 350.5,170.5C 350.5,171.833 350.5,173.167 350.5,174.5C 343.833,174.5 337.167,174.5 330.5,174.5C 330.5,173.167 330.5,171.833 330.5,170.5C 332.144,170.714 333.644,170.38 335,169.5C 335.5,160.173 335.666,150.839 335.5,141.5C 338.348,140.343 340.848,140.676 343,142.5C 344.461,141.117 345.294,141.451 345.5,143.5 Z"/></g>
<g><path style="opacity:0.056" fill="#d2fcfc" d="M 350.5,170.5 C 352.781,171.634 352.781,172.968 350.5,174.5C 350.5,173.167 350.5,171.833 350.5,170.5 Z"/></g>
<g><path style="opacity:0.035" fill="#c2f1f1" d="M 487.5,174.5 C 486.18,173.058 484.514,172.392 482.5,172.5C 485.017,169.926 486.684,170.592 487.5,174.5 Z"/></g>
<g><path style="opacity:0.031" fill="#b9ebee" d="M 311.5,172.5 C 310.883,172.389 310.383,172.056 310,171.5C 307.895,174.302 305.061,175.635 301.5,175.5C 304.845,174.395 307.678,172.395 310,169.5C 311.039,170.244 311.539,171.244 311.5,172.5 Z"/></g>
<g><path style="opacity:0.082" fill="#cefdfb" d="M 355.5,170.5 C 355.5,171.833 355.5,173.167 355.5,174.5C 352.833,173.167 352.833,171.833 355.5,170.5 Z"/></g>
<g><path style="opacity:0.537" fill="#a1d5d5" d="M 52.5,171.5 C 50.064,172.871 47.3973,173.871 44.5,174.5C 46.6174,172.345 49.284,171.345 52.5,171.5 Z"/></g>
<g><path style="opacity:0.984" fill="#5e6c7c" d="M 203.5,170.5 C 207.514,170.334 211.514,170.501 215.5,171C 212.862,176.808 208.528,180.642 202.5,182.5C 202.5,182.167 202.5,181.833 202.5,181.5C 204.629,179.659 206.962,177.992 209.5,176.5C 210.357,175.264 211.023,173.931 211.5,172.5C 208.694,171.832 206.028,171.166 203.5,170.5 Z"/></g>
<g><path style="opacity:0.024" fill="#c6f6f4" d="M 311.5,172.5 C 312.833,173.167 313.833,174.167 314.5,175.5C 312.5,175.5 311.5,174.5 311.5,172.5 Z"/></g>
<g><path style="opacity:1" fill="#208282" d="M 90.5,187.5 C 92.2143,188.738 94.2143,189.405 96.5,189.5C 100.833,189.5 105.167,189.5 109.5,189.5C 110.586,189.62 111.253,190.287 111.5,191.5C 111.248,193.073 110.582,194.406 109.5,195.5C 107.609,196.536 105.776,196.536 104,195.5C 103.59,196.901 103.09,198.234 102.5,199.5C 100.574,201.293 98.2406,202.293 95.5,202.5C 88.8409,203.783 82.1742,203.783 75.5,202.5C 74.4019,201.603 74.4019,200.77 75.5,200C 73.1341,199.56 70.8008,199.06 68.5,198.5C 64.063,195.576 59.7297,192.409 55.5,189C 49.4901,186.132 43.1567,184.965 36.5,185.5C 33.333,185.4 30.333,186.067 27.5,187.5C 27.1667,187.167 26.8333,186.833 26.5,186.5C 27.1925,185.482 27.8592,184.482 28.5,183.5C 31.228,180.291 34.5613,177.791 38.5,176C 40.4357,175.187 42.4357,174.687 44.5,174.5C 47.3973,173.871 50.064,172.871 52.5,171.5C 59.8732,170.003 66.8732,171.169 73.5,175C 78.5236,180.165 84.1903,184.331 90.5,187.5 Z"/></g>
<g><path style="opacity:1" fill="#293a53" d="M 202.5,181.5 C 202.5,181.833 202.5,182.167 202.5,182.5C 193.214,186.729 184.214,185.896 175.5,180C 168.584,172.548 160.251,167.715 150.5,165.5C 152.126,165.062 153.793,164.728 155.5,164.5C 159.723,165.033 164.057,166.2 168.5,168C 170.833,171.667 173.833,174.667 177.5,177C 181.248,176.78 184.248,178.113 186.5,181C 191.823,181.499 197.156,181.666 202.5,181.5 Z"/></g>
<g><path style="opacity:0.609" fill="#92bfc2" d="M 231.5,169.5 C 231.5,171.167 231.5,172.833 231.5,174.5C 246.41,175.124 261.076,174.458 275.5,172.5C 275.5,172.833 275.5,173.167 275.5,173.5C 275.423,174.75 274.756,175.583 273.5,176C 259.33,176.092 244.997,175.925 230.5,175.5C 230.205,173.265 230.539,171.265 231.5,169.5 Z"/></g>
<g><path style="opacity:0.576" fill="#77abab" d="M 330.5,170.5 C 330.5,171.833 330.5,173.167 330.5,174.5C 337.167,174.5 343.833,174.5 350.5,174.5C 343.687,175.491 336.687,175.825 329.5,175.5C 329.67,174.178 329.337,173.011 328.5,172C 329.044,171.283 329.711,170.783 330.5,170.5 Z"/></g>
<g><path style="opacity:0.565" fill="#7aafb1" d="M 407.5,167.5 C 406.781,169.764 406.448,172.097 406.5,174.5C 420.833,174.5 435.167,174.5 449.5,174.5C 449.263,173.209 449.596,172.209 450.5,171.5C 450.5,171.833 450.5,172.167 450.5,172.5C 450.5,173.5 450.5,174.5 450.5,175.5C 435.546,175.745 420.546,175.745 405.5,175.5C 405.337,173.143 405.503,170.81 406,168.5C 406.383,167.944 406.883,167.611 407.5,167.5 Z"/></g>
<g><path style="opacity:0.533" fill="#80b3b3" d="M 504.5,170.5 C 504.833,170.5 505.167,170.5 505.5,170.5C 505.5,171.833 505.5,173.167 505.5,174.5C 511.833,174.5 518.167,174.5 524.5,174.5C 524.5,173.167 524.5,171.833 524.5,170.5C 524.833,170.5 525.167,170.5 525.5,170.5C 526.801,171.884 526.801,173.384 525.5,175C 518.476,175.831 511.476,175.664 504.5,174.5C 503.295,173.005 503.295,171.672 504.5,170.5 Z"/></g>
<g><path style="opacity:0.553" fill="#7bb0b3" d="M 530.5,170.5 C 530.5,171.833 530.5,173.167 530.5,174.5C 536.833,174.5 543.167,174.5 549.5,174.5C 543.021,175.491 536.354,175.824 529.5,175.5C 529.216,173.585 529.549,171.919 530.5,170.5 Z"/></g>
<g><path style="opacity:0.518" fill="#8e9bab" d="M 79.5,173.5 C 81.7488,174.08 83.4154,175.413 84.5,177.5C 82.2512,176.92 80.5846,175.587 79.5,173.5 Z"/></g>
<g><path style="opacity:0.004" fill="#fefffe" d="M 289.5,177.5 C 290.833,178.167 290.833,178.167 289.5,177.5 Z"/></g>
<g><path style="opacity:1" fill="#293a52" d="M 77.5,150.5 C 79.6353,152.369 82.3019,153.036 85.5,152.5C 87.8816,153.351 89.8816,154.684 91.5,156.5C 91.9731,157.906 92.9731,158.573 94.5,158.5C 95.5,158.833 96.1667,159.5 96.5,160.5C 96.9731,161.906 97.9731,162.573 99.5,162.5C 102.701,163.931 105.701,165.597 108.5,167.5C 108.611,168.117 108.944,168.617 109.5,169C 111.81,169.497 114.143,169.663 116.5,169.5C 117.833,169.5 119.167,169.5 120.5,169.5C 120.343,170.873 120.51,172.207 121,173.5C 122.049,172.483 123.216,172.316 124.5,173C 121.289,173.732 119.289,175.566 118.5,178.5C 106.834,185.481 95.5012,185.148 84.5,177.5C 87.5925,176.81 90.4259,177.81 93,180.5C 96.1767,177.922 99.6767,177.256 103.5,178.5C 102.603,178.669 101.603,179.002 100.5,179.5C 106.077,181.181 111.077,180.181 115.5,176.5C 114.91,175.201 113.91,174.368 112.5,174C 114.833,173.667 117.167,173.333 119.5,173C 119.167,172.667 118.833,172.333 118.5,172C 112.983,171.916 107.649,170.916 102.5,169C 101.382,167.926 100.382,166.76 99.5,165.5C 94.3106,163.964 90.3106,160.964 87.5,156.5C 79.6217,153.112 71.6217,152.779 63.5,155.5C 62.3777,154.37 61.0443,153.703 59.5,153.5C 61.5145,152.076 63.8478,151.41 66.5,151.5C 68.4147,151.784 70.0813,151.451 71.5,150.5C 73.7411,150.046 75.7411,150.046 77.5,150.5 Z"/></g>
<g><path style="opacity:0.369" fill="#acb2bd" d="M 291.5,179.5 C 292.167,183.833 292.833,188.167 293.5,192.5C 293.631,193.376 293.298,194.043 292.5,194.5C 291.506,189.544 291.173,184.544 291.5,179.5 Z"/></g>
<g><path style="opacity:0.974" fill="#609595" d="M 122.5,184.5 C 121.086,186.598 121.752,187.598 124.5,187.5C 119.381,189.894 114.381,192.56 109.5,195.5C 110.582,194.406 111.248,193.073 111.5,191.5C 111.253,190.287 110.586,189.62 109.5,189.5C 113.645,187.604 117.979,185.937 122.5,184.5 Z"/></g>
<g><path style="opacity:0.78" fill="#add2d2" d="M 175.5,185.5 C 178.728,186.943 181.728,188.61 184.5,190.5C 180.651,190.082 177.651,188.415 175.5,185.5 Z"/></g>
<g><path style="opacity:0.647" fill="#91b2af" d="M 28.5,183.5 C 27.8592,184.482 27.1925,185.482 26.5,186.5C 26.8333,186.833 27.1667,187.167 27.5,187.5C 30.333,186.067 33.333,185.4 36.5,185.5C 32.6713,186.998 28.6713,188.332 24.5,189.5C 24.1667,189.167 23.8333,188.833 23.5,188.5C 24.5244,186.054 26.1911,184.388 28.5,183.5 Z"/></g>
<g><path style="opacity:0.125" fill="#baece9" d="M 90.5,187.5 C 92.8984,187.259 94.8984,187.926 96.5,189.5C 94.2143,189.405 92.2143,188.738 90.5,187.5 Z"/></g>
<g><path style="opacity:0.051" fill="#c3d8d7" d="M 250.5,188.5 C 249.833,187.167 249.833,187.167 250.5,188.5 Z"/></g>
<g><path style="opacity:0.012" fill="#c1c4c7" d="M 299.5,190.5 C 302.701,186.797 302.035,185.797 297.5,187.5C 298.552,185.744 300.219,185.077 302.5,185.5C 302.741,188.034 301.741,189.7 299.5,190.5 Z"/></g>
<g><path style="opacity:1" fill="#1e8281" d="M 175.5,185.5 C 177.651,188.415 180.651,190.082 184.5,190.5C 185.791,190.263 186.791,190.596 187.5,191.5C 191.167,192.167 194.833,192.833 198.5,193.5C 197.026,194.436 196.026,195.77 195.5,197.5C 193.732,200.59 191.065,202.59 187.5,203.5C 181.616,205.066 175.616,205.732 169.5,205.5C 167.436,205.313 165.436,204.813 163.5,204C 157.448,198.947 151.115,194.281 144.5,190C 137.995,187.126 131.328,186.292 124.5,187.5C 121.752,187.598 121.086,186.598 122.5,184.5C 140.563,168.245 158.23,168.579 175.5,185.5 Z"/></g>
<g><path style="opacity:1" fill="#434e5d" d="M 251.5,205.5 C 251.414,204.504 251.748,203.671 252.5,203C 250.601,198.822 249.935,194.322 250.5,189.5C 250.5,189.167 250.5,188.833 250.5,188.5C 253.499,184.558 256.999,183.891 261,186.5C 262,185.833 263,185.167 264,184.5C 265.432,192.054 265.932,199.721 265.5,207.5C 262.626,207.451 259.792,207.784 257,208.5C 254.601,208.387 252.768,207.387 251.5,205.5 Z M 255.5,189.5 C 257.514,189.392 259.18,190.058 260.5,191.5C 260.665,194.85 260.498,198.183 260,201.5C 259.578,203.426 258.411,204.426 256.5,204.5C 256.027,203.094 255.027,202.427 253.5,202.5C 253.5,202.167 253.5,201.833 253.5,201.5C 253.643,198.477 253.643,195.143 253.5,191.5C 254.5,191.167 255.167,190.5 255.5,189.5 Z"/></g>
<g><path style="opacity:0.141" fill="#b9c3d1" d="M 255.5,189.5 C 256.601,188.402 257.934,188.235 259.5,189C 260.252,189.671 260.586,190.504 260.5,191.5C 259.18,190.058 257.514,189.392 255.5,189.5 Z"/></g>
<g><path style="opacity:0.251" fill="#a5d2d7" d="M 187.5,191.5 C 191.555,191.176 195.555,191.509 199.5,192.5C 199.376,193.107 199.043,193.44 198.5,193.5C 194.833,192.833 191.167,192.167 187.5,191.5 Z"/></g>
<g><path style="opacity:0.376" fill="#bccad6" d="M 236.5,185.5 C 236.337,187.857 236.503,190.19 237,192.5C 238.605,192.438 240.105,192.438 241.5,192.5C 241.5,192.833 241.5,193.167 241.5,193.5C 239.5,193.5 237.5,193.5 235.5,193.5C 235.194,190.615 235.527,187.948 236.5,185.5 Z"/></g>
<g><path style="opacity:1" fill="#2e3947" d="M 291.5,179.5 C 291.173,184.544 291.506,189.544 292.5,194.5C 293.298,194.043 293.631,193.376 293.5,192.5C 295.262,191.738 296.262,190.404 296.5,188.5C 296.5,187.833 296.833,187.5 297.5,187.5C 302.035,185.797 302.701,186.797 299.5,190.5C 297.018,192.085 296.352,194.085 297.5,196.5C 297.5,196.833 297.5,197.167 297.5,197.5C 298.026,199.23 299.026,200.564 300.5,201.5C 301.74,202.973 302.74,204.64 303.5,206.5C 301.833,207.833 300.167,207.833 298.5,206.5C 297.74,204.64 296.74,202.973 295.5,201.5C 295.291,200.078 294.791,198.745 294,197.5C 293.283,198.044 292.783,198.711 292.5,199.5C 292.5,202.167 292.5,204.833 292.5,207.5C 291.167,207.5 289.833,207.5 288.5,207.5C 288.269,198.07 288.269,188.737 288.5,179.5C 289.5,179.5 290.5,179.5 291.5,179.5 Z"/></g>
<g><path style="opacity:0.576" fill="#95a2ae" d="M 296.5,188.5 C 296.262,190.404 295.262,191.738 293.5,192.5C 293.738,190.596 294.738,189.262 296.5,188.5 Z"/></g>
<g><path style="opacity:1" fill="#1b2b3a" d="M 232.5,182.5 C 235.187,182.336 237.854,182.503 240.5,183C 239.244,183.417 238.577,184.25 238.5,185.5C 237.833,185.5 237.167,185.5 236.5,185.5C 235.527,187.948 235.194,190.615 235.5,193.5C 237.5,193.5 239.5,193.5 241.5,193.5C 242.239,193.369 242.906,193.536 243.5,194C 242.584,194.278 241.918,194.778 241.5,195.5C 239.5,195.5 237.5,195.5 235.5,195.5C 235.5,198.5 235.5,201.5 235.5,204.5C 237.5,204.5 239.5,204.5 241.5,204.5C 241.557,205.609 241.89,206.609 242.5,207.5C 238.625,207.915 234.958,207.415 231.5,206C 232.482,198.253 232.815,190.42 232.5,182.5 Z"/></g>
<g><path style="opacity:0.004" fill="#dee8ef" d="M 299.5,190.5 C 298.833,192.5 298.167,194.5 297.5,196.5C 296.352,194.085 297.018,192.085 299.5,190.5 Z"/></g>
<g><path style="opacity:0.639" fill="#7b8090" d="M 253.5,191.5 C 253.643,195.143 253.643,198.477 253.5,201.5C 252.167,198.167 252.167,194.833 253.5,191.5 Z"/></g>
<g><path style="opacity:1" fill="#474f61" d="M 232.5,182.5 C 237.249,180.864 241.749,181.53 246,184.5C 248.133,187.827 247.966,190.994 245.5,194C 247.429,197.256 247.929,200.756 247,204.5C 246.082,206.376 244.582,207.376 242.5,207.5C 241.89,206.609 241.557,205.609 241.5,204.5C 242.167,204.5 242.5,204.167 242.5,203.5C 244.086,200.784 243.753,198.45 241.5,196.5C 241.5,196.167 241.5,195.833 241.5,195.5C 241.918,194.778 242.584,194.278 243.5,194C 242.906,193.536 242.239,193.369 241.5,193.5C 241.5,193.167 241.5,192.833 241.5,192.5C 244.212,188.899 243.212,186.566 238.5,185.5C 238.577,184.25 239.244,183.417 240.5,183C 237.854,182.503 235.187,182.336 232.5,182.5 Z"/></g>
<g><path style="opacity:0.643" fill="#788294" d="M 250.5,189.5 C 249.935,194.322 250.601,198.822 252.5,203C 251.748,203.671 251.414,204.504 251.5,205.5C 250.229,203.891 249.229,202.058 248.5,200C 249.135,196.397 249.802,192.897 250.5,189.5 Z"/></g>
<g><path style="opacity:1" fill="#81bbb8" d="M 109.5,195.5 C 107.664,197.588 105.331,198.921 102.5,199.5C 103.09,198.234 103.59,196.901 104,195.5C 105.776,196.536 107.609,196.536 109.5,195.5 Z"/></g>
<g><path style="opacity:0.024" fill="#c7f2f1" d="M 198.5,193.5 C 198.446,195.632 197.446,196.965 195.5,197.5C 196.026,195.77 197.026,194.436 198.5,193.5 Z"/></g>
<g><path style="opacity:0.086" fill="#c9d1dc" d="M 241.5,195.5 C 241.5,195.833 241.5,196.167 241.5,196.5C 240.142,196.822 238.475,196.822 236.5,196.5C 236.5,198.833 236.5,201.167 236.5,203.5C 238.5,203.5 240.5,203.5 242.5,203.5C 242.5,204.167 242.167,204.5 241.5,204.5C 239.5,204.5 237.5,204.5 235.5,204.5C 235.5,201.5 235.5,198.5 235.5,195.5C 237.5,195.5 239.5,195.5 241.5,195.5 Z"/></g>
<g><path style="opacity:0.071" fill="#d4d6df" d="M 297.5,197.5 C 299.446,198.035 300.446,199.368 300.5,201.5C 299.026,200.564 298.026,199.23 297.5,197.5 Z"/></g>
<g><path style="opacity:0.678" fill="#79828d" d="M 281.5,186.5 C 282.931,186.881 283.764,187.881 284,189.5C 284.819,195.681 284.653,201.681 283.5,207.5C 284.002,200.318 283.335,193.318 281.5,186.5 Z"/></g>
<g><path style="opacity:1" fill="#75aaad" d="M 68.5,198.5 C 70.8008,199.06 73.1341,199.56 75.5,200C 74.4019,200.77 74.4019,201.603 75.5,202.5C 72.6689,201.921 70.3356,200.588 68.5,198.5 Z"/></g>
<g><path style="opacity:0.094" fill="#ced7e1" d="M 273.5,186.5 C 272.687,187.653 271.687,187.653 270.5,186.5C 269.503,193.468 269.17,200.468 269.5,207.5C 268.508,200.352 268.175,193.019 268.5,185.5C 270.292,185.366 271.958,185.699 273.5,186.5 Z"/></g>
<g><path style="opacity:0.955" fill="#303c4e" d="M 281.5,186.5 C 283.335,193.318 284.002,200.318 283.5,207.5C 282.833,207.5 282.167,207.5 281.5,207.5C 281.821,202.305 281.487,197.305 280.5,192.5C 279.833,191.5 279.167,190.5 278.5,189.5C 276.545,188.07 274.879,188.403 273.5,190.5C 273.5,196.167 273.5,201.833 273.5,207.5C 272.167,207.5 270.833,207.5 269.5,207.5C 269.17,200.468 269.503,193.468 270.5,186.5C 271.687,187.653 272.687,187.653 273.5,186.5C 276.289,184.286 278.956,184.286 281.5,186.5 Z"/></g>
<g><path style="opacity:0.251" fill="#b2bbca" d="M 278.5,189.5 C 276.784,189.629 275.117,189.962 273.5,190.5C 274.879,188.403 276.545,188.07 278.5,189.5 Z"/></g>
<g><path style="opacity:0.624" fill="#7a8691" d="M 280.5,192.5 C 281.487,197.305 281.821,202.305 281.5,207.5C 280.807,203.435 280.14,199.268 279.5,195C 280.252,194.329 280.586,193.496 280.5,192.5 Z"/></g>
<g><path style="opacity:0.09" fill="#e2eef4" d="M 295.5,201.5 C 294.5,200.833 293.5,200.167 292.5,199.5C 292.783,198.711 293.283,198.044 294,197.5C 294.791,198.745 295.291,200.078 295.5,201.5 Z"/></g>
<g><path style="opacity:0.008" fill="#c5cdd2" d="M 253.5,202.5 C 255.027,202.427 256.027,203.094 256.5,204.5C 254.973,204.573 253.973,203.906 253.5,202.5 Z"/></g>
<g><path style="opacity:0.173" fill="#b2e3e3" d="M 75.5,202.5 C 82.1742,203.783 88.8409,203.783 95.5,202.5C 92.4896,204.129 89.1563,205.129 85.5,205.5C 81.8437,205.129 78.5104,204.129 75.5,202.5 Z"/></g>
<g><path style="opacity:0.075" fill="#c7f2f4" d="M 187.5,203.5 C 185.852,204.927 183.852,205.76 181.5,206C 177.311,206.812 173.311,206.645 169.5,205.5C 175.616,205.732 181.616,205.066 187.5,203.5 Z"/></g>
</svg>
